<?xml version="1.0" encoding="utf-8" standalone="no"?>
<!DOCTYPE svg PUBLIC "-//W3C//DTD SVG 1.1//EN"
  "http://www.w3.org/Graphics/SVG/1.1/DTD/svg11.dtd">
<svg xmlns:xlink="http://www.w3.org/1999/xlink" width="903.676562pt" height="443.108562pt" viewBox="0 0 903.676562 443.108562" xmlns="http://www.w3.org/2000/svg" version="1.1">
 <metadata>
  <rdf:RDF xmlns:dc="http://purl.org/dc/elements/1.1/" xmlns:cc="http://creativecommons.org/ns#" xmlns:rdf="http://www.w3.org/1999/02/22-rdf-syntax-ns#">
   <cc:Work>
    <dc:type rdf:resource="http://purl.org/dc/dcmitype/StillImage"/>
    <dc:date>2026-08-11T20:49:06.996474</dc:date>
    <dc:format>image/svg+xml</dc:format>
    <dc:creator>
     <cc:Agent>
      <dc:title>Matplotlib v3.11.1, https://matplotlib.org/</dc:title>
     </cc:Agent>
    </dc:creator>
   </cc:Work>
  </rdf:RDF>
 </metadata>
 <defs>
  <style type="text/css">*{stroke-linejoin: round; stroke-linecap: butt}</style>
 </defs>
 <g id="figure_1">
  <g id="patch_1">
   <path d="M 0 443.108562 
L 903.676562 443.108562 
L 903.676562 0 
L 0 0 
z
" style="fill: #101216"/>
  </g>
  <g id="axes_1">
   <g id="patch_2">
    <path d="M 47.288281 418.908562 
L 856.388281 418.908562 
L 856.388281 41.916562 
L 47.288281 41.916562 
z
" style="fill: #191c22"/>
   </g>
   <g id="matplotlib.axis_1">
    <g id="xtick_1">
     <g id="line2d_1">
      <defs>
       <path id="ma1db4334f0" d="M 0 0 
L 0 3.5 
" style="stroke: #a6abb6; stroke-width: 0.8"/>
      </defs>
      <g>
       <use xlink:href="#ma1db4334f0" x="109.900828" y="418.908562" style="fill: #a6abb6; stroke: #a6abb6; stroke-width: 0.8"/>
      </g>
     </g>
     <g id="text_1">
      <!-- V1* -->
      <g style="fill: #f5f4ef" transform="translate(100.799266 433.506219) scale(0.1 -0.1)">
       <defs>
        <path id="DejaVuSans-39" d="M 1831 0 
L 50 4666 
L 709 4666 
L 2188 738 
L 3669 4666 
L 4325 4666 
L 2547 0 
L 1831 0 
z
" transform="scale(0.015625)"/>
        <path id="DejaVuSans-14" d="M 794 531 
L 1825 531 
L 1825 4091 
L 703 3866 
L 703 4441 
L 1819 4666 
L 2450 4666 
L 2450 531 
L 3481 531 
L 3481 0 
L 794 0 
L 794 531 
z
" transform="scale(0.015625)"/>
        <path id="DejaVuSans-d" d="M 3009 3897 
L 1888 3291 
L 3009 2681 
L 2828 2375 
L 1778 3009 
L 1778 1831 
L 1422 1831 
L 1422 3009 
L 372 2375 
L 191 2681 
L 1313 3291 
L 191 3897 
L 372 4206 
L 1422 3572 
L 1422 4750 
L 1778 4750 
L 1778 3572 
L 2828 4206 
L 3009 3897 
z
" transform="scale(0.015625)"/>
       </defs>
       <use xlink:href="#DejaVuSans-39"/>
       <use xlink:href="#DejaVuSans-14" transform="translate(68.40625 0)"/>
       <use xlink:href="#DejaVuSans-d" transform="translate(132.03125 0)"/>
      </g>
     </g>
    </g>
    <g id="xtick_2">
     <g id="line2d_2">
      <g>
       <use xlink:href="#ma1db4334f0" x="185.886929" y="418.908562" style="fill: #a6abb6; stroke: #a6abb6; stroke-width: 0.8"/>
      </g>
     </g>
     <g id="text_2">
      <!-- V2* -->
      <g style="fill: #f5f4ef" transform="translate(176.785366 433.506219) scale(0.1 -0.1)">
       <defs>
        <path id="DejaVuSans-15" d="M 1228 531 
L 3431 531 
L 3431 0 
L 469 0 
L 469 531 
Q 828 903 1448 1529 
Q 2069 2156 2228 2338 
Q 2531 2678 2651 2914 
Q 2772 3150 2772 3378 
Q 2772 3750 2511 3984 
Q 2250 4219 1831 4219 
Q 1534 4219 1204 4116 
Q 875 4013 500 3803 
L 500 4441 
Q 881 4594 1212 4672 
Q 1544 4750 1819 4750 
Q 2544 4750 2975 4387 
Q 3406 4025 3406 3419 
Q 3406 3131 3298 2873 
Q 3191 2616 2906 2266 
Q 2828 2175 2409 1742 
Q 1991 1309 1228 531 
z
" transform="scale(0.015625)"/>
       </defs>
       <use xlink:href="#DejaVuSans-39"/>
       <use xlink:href="#DejaVuSans-15" transform="translate(68.40625 0)"/>
       <use xlink:href="#DejaVuSans-d" transform="translate(132.03125 0)"/>
      </g>
     </g>
    </g>
    <g id="xtick_3">
     <g id="line2d_3">
      <g>
       <use xlink:href="#ma1db4334f0" x="261.87303" y="418.908562" style="fill: #a6abb6; stroke: #a6abb6; stroke-width: 0.8"/>
      </g>
     </g>
     <g id="text_3">
      <!-- V3 -->
      <g style="fill: #f5f4ef" transform="translate(255.271467 433.506219) scale(0.1 -0.1)">
       <defs>
        <path id="DejaVuSans-16" d="M 2597 2516 
Q 3050 2419 3304 2112 
Q 3559 1806 3559 1356 
Q 3559 666 3084 287 
Q 2609 -91 1734 -91 
Q 1441 -91 1130 -33 
Q 819 25 488 141 
L 488 750 
Q 750 597 1062 519 
Q 1375 441 1716 441 
Q 2309 441 2620 675 
Q 2931 909 2931 1356 
Q 2931 1769 2642 2001 
Q 2353 2234 1838 2234 
L 1294 2234 
L 1294 2753 
L 1863 2753 
Q 2328 2753 2575 2939 
Q 2822 3125 2822 3475 
Q 2822 3834 2567 4026 
Q 2313 4219 1838 4219 
Q 1578 4219 1281 4162 
Q 984 4106 628 3988 
L 628 4550 
Q 988 4650 1302 4700 
Q 1616 4750 1894 4750 
Q 2613 4750 3031 4423 
Q 3450 4097 3450 3541 
Q 3450 3153 3228 2886 
Q 3006 2619 2597 2516 
z
" transform="scale(0.015625)"/>
       </defs>
       <use xlink:href="#DejaVuSans-39"/>
       <use xlink:href="#DejaVuSans-16" transform="translate(68.40625 0)"/>
      </g>
     </g>
    </g>
    <g id="xtick_4">
     <g id="line2d_4">
      <g>
       <use xlink:href="#ma1db4334f0" x="337.85913" y="418.908562" style="fill: #a6abb6; stroke: #a6abb6; stroke-width: 0.8"/>
      </g>
     </g>
     <g id="text_4">
      <!-- V4 -->
      <g style="fill: #f5f4ef" transform="translate(331.257568 433.506219) scale(0.1 -0.1)">
       <defs>
        <path id="DejaVuSans-17" d="M 2419 4116 
L 825 1625 
L 2419 1625 
L 2419 4116 
z
M 2253 4666 
L 3047 4666 
L 3047 1625 
L 3713 1625 
L 3713 1100 
L 3047 1100 
L 3047 0 
L 2419 0 
L 2419 1100 
L 313 1100 
L 313 1709 
L 2253 4666 
z
" transform="scale(0.015625)"/>
       </defs>
       <use xlink:href="#DejaVuSans-39"/>
       <use xlink:href="#DejaVuSans-17" transform="translate(68.40625 0)"/>
      </g>
     </g>
    </g>
    <g id="xtick_5">
     <g id="line2d_5">
      <g>
       <use xlink:href="#ma1db4334f0" x="413.845231" y="418.908562" style="fill: #a6abb6; stroke: #a6abb6; stroke-width: 0.8"/>
      </g>
     </g>
     <g id="text_5">
      <!-- V5 -->
      <g style="fill: #f5f4ef" transform="translate(407.243668 433.506219) scale(0.1 -0.1)">
       <defs>
        <path id="DejaVuSans-18" d="M 691 4666 
L 3169 4666 
L 3169 4134 
L 1269 4134 
L 1269 2991 
Q 1406 3038 1543 3061 
Q 1681 3084 1819 3084 
Q 2600 3084 3056 2656 
Q 3513 2228 3513 1497 
Q 3513 744 3044 326 
Q 2575 -91 1722 -91 
Q 1428 -91 1123 -41 
Q 819 9 494 109 
L 494 744 
Q 775 591 1075 516 
Q 1375 441 1709 441 
Q 2250 441 2565 725 
Q 2881 1009 2881 1497 
Q 2881 1984 2565 2268 
Q 2250 2553 1709 2553 
Q 1456 2553 1204 2497 
Q 953 2441 691 2322 
L 691 4666 
z
" transform="scale(0.015625)"/>
       </defs>
       <use xlink:href="#DejaVuSans-39"/>
       <use xlink:href="#DejaVuSans-18" transform="translate(68.40625 0)"/>
      </g>
     </g>
    </g>
    <g id="xtick_6">
     <g id="line2d_6">
      <g>
       <use xlink:href="#ma1db4334f0" x="489.831332" y="418.908562" style="fill: #a6abb6; stroke: #a6abb6; stroke-width: 0.8"/>
      </g>
     </g>
     <g id="text_6">
      <!-- V6 -->
      <g style="fill: #f5f4ef" transform="translate(483.229769 433.506219) scale(0.1 -0.1)">
       <defs>
        <path id="DejaVuSans-19" d="M 2113 2584 
Q 1688 2584 1439 2293 
Q 1191 2003 1191 1497 
Q 1191 994 1439 701 
Q 1688 409 2113 409 
Q 2538 409 2786 701 
Q 3034 994 3034 1497 
Q 3034 2003 2786 2293 
Q 2538 2584 2113 2584 
z
M 3366 4563 
L 3366 3988 
Q 3128 4100 2886 4159 
Q 2644 4219 2406 4219 
Q 1781 4219 1451 3797 
Q 1122 3375 1075 2522 
Q 1259 2794 1537 2939 
Q 1816 3084 2150 3084 
Q 2853 3084 3261 2657 
Q 3669 2231 3669 1497 
Q 3669 778 3244 343 
Q 2819 -91 2113 -91 
Q 1303 -91 875 529 
Q 447 1150 447 2328 
Q 447 3434 972 4092 
Q 1497 4750 2381 4750 
Q 2619 4750 2861 4703 
Q 3103 4656 3366 4563 
z
" transform="scale(0.015625)"/>
       </defs>
       <use xlink:href="#DejaVuSans-39"/>
       <use xlink:href="#DejaVuSans-19" transform="translate(68.40625 0)"/>
      </g>
     </g>
    </g>
    <g id="xtick_7">
     <g id="line2d_7">
      <g>
       <use xlink:href="#ma1db4334f0" x="565.817432" y="418.908562" style="fill: #a6abb6; stroke: #a6abb6; stroke-width: 0.8"/>
      </g>
     </g>
     <g id="text_7">
      <!-- V7 -->
      <g style="fill: #f5f4ef" transform="translate(559.21587 433.506219) scale(0.1 -0.1)">
       <defs>
        <path id="DejaVuSans-1a" d="M 525 4666 
L 3525 4666 
L 3525 4397 
L 1831 0 
L 1172 0 
L 2766 4134 
L 525 4134 
L 525 4666 
z
" transform="scale(0.015625)"/>
       </defs>
       <use xlink:href="#DejaVuSans-39"/>
       <use xlink:href="#DejaVuSans-1a" transform="translate(68.40625 0)"/>
      </g>
     </g>
    </g>
    <g id="xtick_8">
     <g id="line2d_8">
      <g>
       <use xlink:href="#ma1db4334f0" x="641.803533" y="418.908562" style="fill: #a6abb6; stroke: #a6abb6; stroke-width: 0.8"/>
      </g>
     </g>
     <g id="text_8">
      <!-- V8 -->
      <g style="fill: #f5f4ef" transform="translate(635.20197 433.506219) scale(0.1 -0.1)">
       <defs>
        <path id="DejaVuSans-1b" d="M 2034 2216 
Q 1584 2216 1326 1975 
Q 1069 1734 1069 1313 
Q 1069 891 1326 650 
Q 1584 409 2034 409 
Q 2484 409 2743 651 
Q 3003 894 3003 1313 
Q 3003 1734 2745 1975 
Q 2488 2216 2034 2216 
z
M 1403 2484 
Q 997 2584 770 2862 
Q 544 3141 544 3541 
Q 544 4100 942 4425 
Q 1341 4750 2034 4750 
Q 2731 4750 3128 4425 
Q 3525 4100 3525 3541 
Q 3525 3141 3298 2862 
Q 3072 2584 2669 2484 
Q 3125 2378 3379 2068 
Q 3634 1759 3634 1313 
Q 3634 634 3220 271 
Q 2806 -91 2034 -91 
Q 1263 -91 848 271 
Q 434 634 434 1313 
Q 434 1759 690 2068 
Q 947 2378 1403 2484 
z
M 1172 3481 
Q 1172 3119 1398 2916 
Q 1625 2713 2034 2713 
Q 2441 2713 2670 2916 
Q 2900 3119 2900 3481 
Q 2900 3844 2670 4047 
Q 2441 4250 2034 4250 
Q 1625 4250 1398 4047 
Q 1172 3844 1172 3481 
z
" transform="scale(0.015625)"/>
       </defs>
       <use xlink:href="#DejaVuSans-39"/>
       <use xlink:href="#DejaVuSans-1b" transform="translate(68.40625 0)"/>
      </g>
     </g>
    </g>
    <g id="xtick_9">
     <g id="line2d_9">
      <g>
       <use xlink:href="#ma1db4334f0" x="717.789634" y="418.908562" style="fill: #a6abb6; stroke: #a6abb6; stroke-width: 0.8"/>
      </g>
     </g>
     <g id="text_9">
      <!-- V9 -->
      <g style="fill: #f5f4ef" transform="translate(711.188071 433.506219) scale(0.1 -0.1)">
       <defs>
        <path id="DejaVuSans-1c" d="M 703 97 
L 703 672 
Q 941 559 1184 500 
Q 1428 441 1663 441 
Q 2288 441 2617 861 
Q 2947 1281 2994 2138 
Q 2813 1869 2534 1725 
Q 2256 1581 1919 1581 
Q 1219 1581 811 2004 
Q 403 2428 403 3163 
Q 403 3881 828 4315 
Q 1253 4750 1959 4750 
Q 2769 4750 3195 4129 
Q 3622 3509 3622 2328 
Q 3622 1225 3098 567 
Q 2575 -91 1691 -91 
Q 1453 -91 1209 -44 
Q 966 3 703 97 
z
M 1959 2075 
Q 2384 2075 2632 2365 
Q 2881 2656 2881 3163 
Q 2881 3666 2632 3958 
Q 2384 4250 1959 4250 
Q 1534 4250 1286 3958 
Q 1038 3666 1038 3163 
Q 1038 2656 1286 2365 
Q 1534 2075 1959 2075 
z
" transform="scale(0.015625)"/>
       </defs>
       <use xlink:href="#DejaVuSans-39"/>
       <use xlink:href="#DejaVuSans-1c" transform="translate(68.40625 0)"/>
      </g>
     </g>
    </g>
    <g id="xtick_10">
     <g id="line2d_10">
      <g>
       <use xlink:href="#ma1db4334f0" x="793.775734" y="418.908562" style="fill: #a6abb6; stroke: #a6abb6; stroke-width: 0.8"/>
      </g>
     </g>
     <g id="text_10">
      <!-- cuBLAS -->
      <g style="fill: #f5f4ef" transform="translate(774.931984 433.506219) scale(0.1 -0.1)">
       <defs>
        <path id="DejaVuSans-46" d="M 3122 3366 
L 3122 2828 
Q 2878 2963 2633 3030 
Q 2388 3097 2138 3097 
Q 1578 3097 1268 2742 
Q 959 2388 959 1747 
Q 959 1106 1268 751 
Q 1578 397 2138 397 
Q 2388 397 2633 464 
Q 2878 531 3122 666 
L 3122 134 
Q 2881 22 2623 -34 
Q 2366 -91 2075 -91 
Q 1284 -91 818 406 
Q 353 903 353 1747 
Q 353 2603 823 3093 
Q 1294 3584 2113 3584 
Q 2378 3584 2631 3529 
Q 2884 3475 3122 3366 
z
" transform="scale(0.015625)"/>
        <path id="DejaVuSans-58" d="M 544 1381 
L 544 3500 
L 1119 3500 
L 1119 1403 
Q 1119 906 1312 657 
Q 1506 409 1894 409 
Q 2359 409 2629 706 
Q 2900 1003 2900 1516 
L 2900 3500 
L 3475 3500 
L 3475 0 
L 2900 0 
L 2900 538 
Q 2691 219 2414 64 
Q 2138 -91 1772 -91 
Q 1169 -91 856 284 
Q 544 659 544 1381 
z
M 1991 3584 
L 1991 3584 
z
" transform="scale(0.015625)"/>
        <path id="DejaVuSans-25" d="M 1259 2228 
L 1259 519 
L 2272 519 
Q 2781 519 3026 730 
Q 3272 941 3272 1375 
Q 3272 1813 3026 2020 
Q 2781 2228 2272 2228 
L 1259 2228 
z
M 1259 4147 
L 1259 2741 
L 2194 2741 
Q 2656 2741 2882 2914 
Q 3109 3088 3109 3444 
Q 3109 3797 2882 3972 
Q 2656 4147 2194 4147 
L 1259 4147 
z
M 628 4666 
L 2241 4666 
Q 2963 4666 3353 4366 
Q 3744 4066 3744 3513 
Q 3744 3084 3544 2831 
Q 3344 2578 2956 2516 
Q 3422 2416 3680 2098 
Q 3938 1781 3938 1306 
Q 3938 681 3513 340 
Q 3088 0 2303 0 
L 628 0 
L 628 4666 
z
" transform="scale(0.015625)"/>
        <path id="DejaVuSans-2f" d="M 628 4666 
L 1259 4666 
L 1259 531 
L 3531 531 
L 3531 0 
L 628 0 
L 628 4666 
z
" transform="scale(0.015625)"/>
        <path id="DejaVuSans-24" d="M 2188 4044 
L 1331 1722 
L 3047 1722 
L 2188 4044 
z
M 1831 4666 
L 2547 4666 
L 4325 0 
L 3669 0 
L 3244 1197 
L 1141 1197 
L 716 0 
L 50 0 
L 1831 4666 
z
" transform="scale(0.015625)"/>
        <path id="DejaVuSans-36" d="M 3425 4513 
L 3425 3897 
Q 3066 4069 2747 4153 
Q 2428 4238 2131 4238 
Q 1616 4238 1336 4038 
Q 1056 3838 1056 3469 
Q 1056 3159 1242 3001 
Q 1428 2844 1947 2747 
L 2328 2669 
Q 3034 2534 3370 2195 
Q 3706 1856 3706 1288 
Q 3706 609 3251 259 
Q 2797 -91 1919 -91 
Q 1588 -91 1214 -16 
Q 841 59 441 206 
L 441 856 
Q 825 641 1194 531 
Q 1563 422 1919 422 
Q 2459 422 2753 634 
Q 3047 847 3047 1241 
Q 3047 1584 2836 1778 
Q 2625 1972 2144 2069 
L 1759 2144 
Q 1053 2284 737 2584 
Q 422 2884 422 3419 
Q 422 4038 858 4394 
Q 1294 4750 2059 4750 
Q 2388 4750 2728 4690 
Q 3069 4631 3425 4513 
z
" transform="scale(0.015625)"/>
       </defs>
       <use xlink:href="#DejaVuSans-46"/>
       <use xlink:href="#DejaVuSans-58" transform="translate(54.984375 0)"/>
       <use xlink:href="#DejaVuSans-25" transform="translate(118.359375 0)"/>
       <use xlink:href="#DejaVuSans-2f" transform="translate(186.96875 0)"/>
       <use xlink:href="#DejaVuSans-24" transform="translate(244.984375 0)"/>
       <use xlink:href="#DejaVuSans-36" transform="translate(313.390625 0)"/>
      </g>
     </g>
    </g>
   </g>
   <g id="matplotlib.axis_2">
    <g id="ytick_1">
     <g id="line2d_11">
      <path d="M 47.288281 418.908562 
L 856.388281 418.908562 
" clip-path="url(#pdf4ad90e5f)" style="fill: none; stroke: #343944; stroke-opacity: 0.65; stroke-width: 0.8; stroke-linecap: square"/>
     </g>
     <g id="line2d_12">
      <defs>
       <path id="m38ab95db19" d="M 0 0 
L -3.5 0 
" style="stroke: #a6abb6; stroke-width: 0.8"/>
      </defs>
      <g>
       <use xlink:href="#m38ab95db19" x="47.288281" y="418.908562" style="fill: #a6abb6; stroke: #a6abb6; stroke-width: 0.8"/>
      </g>
     </g>
     <g id="text_11">
      <!-- 0 -->
      <g style="fill: #a6abb6" transform="translate(33.925781 422.707391) scale(0.1 -0.1)">
       <defs>
        <path id="DejaVuSans-13" d="M 2034 4250 
Q 1547 4250 1301 3770 
Q 1056 3291 1056 2328 
Q 1056 1369 1301 889 
Q 1547 409 2034 409 
Q 2525 409 2770 889 
Q 3016 1369 3016 2328 
Q 3016 3291 2770 3770 
Q 2525 4250 2034 4250 
z
M 2034 4750 
Q 2819 4750 3233 4129 
Q 3647 3509 3647 2328 
Q 3647 1150 3233 529 
Q 2819 -91 2034 -91 
Q 1250 -91 836 529 
Q 422 1150 422 2328 
Q 422 3509 836 4129 
Q 1250 4750 2034 4750 
z
" transform="scale(0.015625)"/>
       </defs>
       <use xlink:href="#DejaVuSans-13"/>
      </g>
     </g>
    </g>
    <g id="ytick_2">
     <g id="line2d_13">
      <path d="M 47.288281 349.095229 
L 856.388281 349.095229 
" clip-path="url(#pdf4ad90e5f)" style="fill: none; stroke: #343944; stroke-opacity: 0.65; stroke-width: 0.8; stroke-linecap: square"/>
     </g>
     <g id="line2d_14">
      <g>
       <use xlink:href="#m38ab95db19" x="47.288281" y="349.095229" style="fill: #a6abb6; stroke: #a6abb6; stroke-width: 0.8"/>
      </g>
     </g>
     <g id="text_12">
      <!-- 20 -->
      <g style="fill: #a6abb6" transform="translate(27.563281 352.894057) scale(0.1 -0.1)">
       <use xlink:href="#DejaVuSans-15"/>
       <use xlink:href="#DejaVuSans-13" transform="translate(63.625 0)"/>
      </g>
     </g>
    </g>
    <g id="ytick_3">
     <g id="line2d_15">
      <path d="M 47.288281 279.281896 
L 856.388281 279.281896 
" clip-path="url(#pdf4ad90e5f)" style="fill: none; stroke: #343944; stroke-opacity: 0.65; stroke-width: 0.8; stroke-linecap: square"/>
     </g>
     <g id="line2d_16">
      <g>
       <use xlink:href="#m38ab95db19" x="47.288281" y="279.281896" style="fill: #a6abb6; stroke: #a6abb6; stroke-width: 0.8"/>
      </g>
     </g>
     <g id="text_13">
      <!-- 40 -->
      <g style="fill: #a6abb6" transform="translate(27.563281 283.080724) scale(0.1 -0.1)">
       <use xlink:href="#DejaVuSans-17"/>
       <use xlink:href="#DejaVuSans-13" transform="translate(63.625 0)"/>
      </g>
     </g>
    </g>
    <g id="ytick_4">
     <g id="line2d_17">
      <path d="M 47.288281 209.468563 
L 856.388281 209.468563 
" clip-path="url(#pdf4ad90e5f)" style="fill: none; stroke: #343944; stroke-opacity: 0.65; stroke-width: 0.8; stroke-linecap: square"/>
     </g>
     <g id="line2d_18">
      <g>
       <use xlink:href="#m38ab95db19" x="47.288281" y="209.468563" style="fill: #a6abb6; stroke: #a6abb6; stroke-width: 0.8"/>
      </g>
     </g>
     <g id="text_14">
      <!-- 60 -->
      <g style="fill: #a6abb6" transform="translate(27.563281 213.267391) scale(0.1 -0.1)">
       <use xlink:href="#DejaVuSans-19"/>
       <use xlink:href="#DejaVuSans-13" transform="translate(63.625 0)"/>
      </g>
     </g>
    </g>
    <g id="ytick_5">
     <g id="line2d_19">
      <path d="M 47.288281 139.655229 
L 856.388281 139.655229 
" clip-path="url(#pdf4ad90e5f)" style="fill: none; stroke: #343944; stroke-opacity: 0.65; stroke-width: 0.8; stroke-linecap: square"/>
     </g>
     <g id="line2d_20">
      <g>
       <use xlink:href="#m38ab95db19" x="47.288281" y="139.655229" style="fill: #a6abb6; stroke: #a6abb6; stroke-width: 0.8"/>
      </g>
     </g>
     <g id="text_15">
      <!-- 80 -->
      <g style="fill: #a6abb6" transform="translate(27.563281 143.454057) scale(0.1 -0.1)">
       <use xlink:href="#DejaVuSans-1b"/>
       <use xlink:href="#DejaVuSans-13" transform="translate(63.625 0)"/>
      </g>
     </g>
    </g>
    <g id="ytick_6">
     <g id="line2d_21">
      <path d="M 47.288281 69.841896 
L 856.388281 69.841896 
" clip-path="url(#pdf4ad90e5f)" style="fill: none; stroke: #343944; stroke-opacity: 0.65; stroke-width: 0.8; stroke-linecap: square"/>
     </g>
     <g id="line2d_22">
      <g>
       <use xlink:href="#m38ab95db19" x="47.288281" y="69.841896" style="fill: #a6abb6; stroke: #a6abb6; stroke-width: 0.8"/>
      </g>
     </g>
     <g id="text_16">
      <!-- 100 -->
      <g style="fill: #a6abb6" transform="translate(21.200781 73.640724) scale(0.1 -0.1)">
       <use xlink:href="#DejaVuSans-14"/>
       <use xlink:href="#DejaVuSans-13" transform="translate(63.625 0)"/>
       <use xlink:href="#DejaVuSans-13" transform="translate(127.25 0)"/>
      </g>
     </g>
    </g>
    <g id="text_17">
     <!-- NVML activity (%) -->
     <g style="fill: #a6abb6" transform="translate(14.798438 274.934437) rotate(-90) scale(0.1 -0.1)">
      <defs>
       <path id="DejaVuSans-31" d="M 628 4666 
L 1478 4666 
L 3547 763 
L 3547 4666 
L 4159 4666 
L 4159 0 
L 3309 0 
L 1241 3903 
L 1241 0 
L 628 0 
L 628 4666 
z
" transform="scale(0.015625)"/>
       <path id="DejaVuSans-30" d="M 628 4666 
L 1569 4666 
L 2759 1491 
L 3956 4666 
L 4897 4666 
L 4897 0 
L 4281 0 
L 4281 4097 
L 3078 897 
L 2444 897 
L 1241 4097 
L 1241 0 
L 628 0 
L 628 4666 
z
" transform="scale(0.015625)"/>
       <path id="DejaVuSans-3" transform="scale(0.015625)"/>
       <path id="DejaVuSans-44" d="M 2194 1759 
Q 1497 1759 1228 1600 
Q 959 1441 959 1056 
Q 959 750 1161 570 
Q 1363 391 1709 391 
Q 2188 391 2477 730 
Q 2766 1069 2766 1631 
L 2766 1759 
L 2194 1759 
z
M 3341 1997 
L 3341 0 
L 2766 0 
L 2766 531 
Q 2569 213 2275 61 
Q 1981 -91 1556 -91 
Q 1019 -91 701 211 
Q 384 513 384 1019 
Q 384 1609 779 1909 
Q 1175 2209 1959 2209 
L 2766 2209 
L 2766 2266 
Q 2766 2663 2505 2880 
Q 2244 3097 1772 3097 
Q 1472 3097 1187 3025 
Q 903 2953 641 2809 
L 641 3341 
Q 956 3463 1253 3523 
Q 1550 3584 1831 3584 
Q 2591 3584 2966 3190 
Q 3341 2797 3341 1997 
z
" transform="scale(0.015625)"/>
       <path id="DejaVuSans-57" d="M 1172 4494 
L 1172 3500 
L 2356 3500 
L 2356 3053 
L 1172 3053 
L 1172 1153 
Q 1172 725 1289 603 
Q 1406 481 1766 481 
L 2356 481 
L 2356 0 
L 1766 0 
Q 1100 0 847 248 
Q 594 497 594 1153 
L 594 3053 
L 172 3053 
L 172 3500 
L 594 3500 
L 594 4494 
L 1172 4494 
z
" transform="scale(0.015625)"/>
       <path id="DejaVuSans-4c" d="M 603 3500 
L 1178 3500 
L 1178 0 
L 603 0 
L 603 3500 
z
M 603 4863 
L 1178 4863 
L 1178 4134 
L 603 4134 
L 603 4863 
z
" transform="scale(0.015625)"/>
       <path id="DejaVuSans-59" d="M 191 3500 
L 800 3500 
L 1894 563 
L 2988 3500 
L 3597 3500 
L 2284 0 
L 1503 0 
L 191 3500 
z
" transform="scale(0.015625)"/>
       <path id="DejaVuSans-5c" d="M 2059 -325 
Q 1816 -950 1584 -1140 
Q 1353 -1331 966 -1331 
L 506 -1331 
L 506 -850 
L 844 -850 
Q 1081 -850 1212 -737 
Q 1344 -625 1503 -206 
L 1606 56 
L 191 3500 
L 800 3500 
L 1894 763 
L 2988 3500 
L 3597 3500 
L 2059 -325 
z
" transform="scale(0.015625)"/>
       <path id="DejaVuSans-b" d="M 1984 4856 
Q 1566 4138 1362 3434 
Q 1159 2731 1159 2009 
Q 1159 1288 1364 580 
Q 1569 -128 1984 -844 
L 1484 -844 
Q 1016 -109 783 600 
Q 550 1309 550 2009 
Q 550 2706 781 3412 
Q 1013 4119 1484 4856 
L 1984 4856 
z
" transform="scale(0.015625)"/>
       <path id="DejaVuSans-8" d="M 4653 2053 
Q 4381 2053 4226 1822 
Q 4072 1591 4072 1178 
Q 4072 772 4226 539 
Q 4381 306 4653 306 
Q 4919 306 5073 539 
Q 5228 772 5228 1178 
Q 5228 1588 5073 1820 
Q 4919 2053 4653 2053 
z
M 4653 2450 
Q 5147 2450 5437 2106 
Q 5728 1763 5728 1178 
Q 5728 594 5436 251 
Q 5144 -91 4653 -91 
Q 4153 -91 3862 251 
Q 3572 594 3572 1178 
Q 3572 1766 3864 2108 
Q 4156 2450 4653 2450 
z
M 1428 4353 
Q 1159 4353 1004 4120 
Q 850 3888 850 3481 
Q 850 3069 1003 2837 
Q 1156 2606 1428 2606 
Q 1700 2606 1854 2837 
Q 2009 3069 2009 3481 
Q 2009 3884 1853 4118 
Q 1697 4353 1428 4353 
z
M 4250 4750 
L 4750 4750 
L 1831 -91 
L 1331 -91 
L 4250 4750 
z
M 1428 4750 
Q 1922 4750 2215 4408 
Q 2509 4066 2509 3481 
Q 2509 2891 2217 2550 
Q 1925 2209 1428 2209 
Q 931 2209 642 2551 
Q 353 2894 353 3481 
Q 353 4063 643 4406 
Q 934 4750 1428 4750 
z
" transform="scale(0.015625)"/>
       <path id="DejaVuSans-c" d="M 513 4856 
L 1013 4856 
Q 1481 4119 1714 3412 
Q 1947 2706 1947 2009 
Q 1947 1309 1714 600 
Q 1481 -109 1013 -844 
L 513 -844 
Q 928 -128 1133 580 
Q 1338 1288 1338 2009 
Q 1338 2731 1133 3434 
Q 928 4138 513 4856 
z
" transform="scale(0.015625)"/>
      </defs>
      <use xlink:href="#DejaVuSans-31"/>
      <use xlink:href="#DejaVuSans-39" transform="translate(74.8125 0)"/>
      <use xlink:href="#DejaVuSans-30" transform="translate(143.21875 0)"/>
      <use xlink:href="#DejaVuSans-2f" transform="translate(229.5 0)"/>
      <use xlink:href="#DejaVuSans-3" transform="translate(285.21875 0)"/>
      <use xlink:href="#DejaVuSans-44" transform="translate(317 0)"/>
      <use xlink:href="#DejaVuSans-46" transform="translate(378.28125 0)"/>
      <use xlink:href="#DejaVuSans-57" transform="translate(433.265625 0)"/>
      <use xlink:href="#DejaVuSans-4c" transform="translate(472.46875 0)"/>
      <use xlink:href="#DejaVuSans-59" transform="translate(500.25 0)"/>
      <use xlink:href="#DejaVuSans-4c" transform="translate(559.4375 0)"/>
      <use xlink:href="#DejaVuSans-57" transform="translate(587.21875 0)"/>
      <use xlink:href="#DejaVuSans-5c" transform="translate(626.421875 0)"/>
      <use xlink:href="#DejaVuSans-3" transform="translate(685.609375 0)"/>
      <use xlink:href="#DejaVuSans-b" transform="translate(717.390625 0)"/>
      <use xlink:href="#DejaVuSans-8" transform="translate(756.40625 0)"/>
      <use xlink:href="#DejaVuSans-c" transform="translate(851.421875 0)"/>
     </g>
    </g>
   </g>
   <g id="patch_3">
    <path d="M 84.065554 418.908562 
L 109.900828 418.908562 
L 109.900828 146.411358 
L 84.065554 146.411358 
z
" clip-path="url(#pdf4ad90e5f)" style="fill: #55d6be"/>
   </g>
   <g id="patch_4">
    <path d="M 160.051655 418.908562 
L 185.886929 418.908562 
L 185.886929 85.898963 
L 160.051655 85.898963 
z
" clip-path="url(#pdf4ad90e5f)" style="fill: #55d6be"/>
   </g>
   <g id="patch_5">
    <path d="M 236.037755 418.908562 
L 261.87303 418.908562 
L 261.87303 71.238163 
L 236.037755 71.238163 
z
" clip-path="url(#pdf4ad90e5f)" style="fill: #55d6be"/>
   </g>
   <g id="patch_6">
    <path d="M 312.023856 418.908562 
L 337.85913 418.908562 
L 337.85913 78.124834 
L 312.023856 78.124834 
z
" clip-path="url(#pdf4ad90e5f)" style="fill: #55d6be"/>
   </g>
   <g id="patch_7">
    <path d="M 388.009957 418.908562 
L 413.845231 418.908562 
L 413.845231 69.841896 
L 388.009957 69.841896 
z
" clip-path="url(#pdf4ad90e5f)" style="fill: #55d6be"/>
   </g>
   <g id="patch_8">
    <path d="M 463.996057 418.908562 
L 489.831332 418.908562 
L 489.831332 71.130757 
L 463.996057 71.130757 
z
" clip-path="url(#pdf4ad90e5f)" style="fill: #55d6be"/>
   </g>
   <g id="patch_9">
    <path d="M 539.982158 418.908562 
L 565.817432 418.908562 
L 565.817432 69.841896 
L 539.982158 69.841896 
z
" clip-path="url(#pdf4ad90e5f)" style="fill: #55d6be"/>
   </g>
   <g id="patch_10">
    <path d="M 615.968259 418.908562 
L 641.803533 418.908562 
L 641.803533 73.051057 
L 615.968259 73.051057 
z
" clip-path="url(#pdf4ad90e5f)" style="fill: #55d6be"/>
   </g>
   <g id="patch_11">
    <path d="M 691.954359 418.908562 
L 717.789634 418.908562 
L 717.789634 70.0671 
L 691.954359 70.0671 
z
" clip-path="url(#pdf4ad90e5f)" style="fill: #55d6be"/>
   </g>
   <g id="patch_12">
    <path d="M 767.94046 418.908562 
L 793.775734 418.908562 
L 793.775734 73.839272 
L 767.94046 73.839272 
z
" clip-path="url(#pdf4ad90e5f)" style="fill: #55d6be"/>
   </g>
   <g id="patch_13">
    <path d="M 109.900828 418.908562 
L 135.736102 418.908562 
L 135.736102 418.908562 
L 109.900828 418.908562 
z
" clip-path="url(#pdf4ad90e5f)" style="fill: #ff9f43"/>
   </g>
   <g id="patch_14">
    <path d="M 185.886929 418.908562 
L 211.722203 418.908562 
L 211.722203 418.908562 
L 185.886929 418.908562 
z
" clip-path="url(#pdf4ad90e5f)" style="fill: #ff9f43"/>
   </g>
   <g id="patch_15">
    <path d="M 261.87303 418.908562 
L 287.708304 418.908562 
L 287.708304 411.927229 
L 261.87303 411.927229 
z
" clip-path="url(#pdf4ad90e5f)" style="fill: #ff9f43"/>
   </g>
   <g id="patch_16">
    <path d="M 337.85913 418.908562 
L 363.694404 418.908562 
L 363.694404 412.163885 
L 337.85913 412.163885 
z
" clip-path="url(#pdf4ad90e5f)" style="fill: #ff9f43"/>
   </g>
   <g id="patch_17">
    <path d="M 413.845231 418.908562 
L 439.680505 418.908562 
L 439.680505 408.436562 
L 413.845231 408.436562 
z
" clip-path="url(#pdf4ad90e5f)" style="fill: #ff9f43"/>
   </g>
   <g id="patch_18">
    <path d="M 489.831332 418.908562 
L 515.666606 418.908562 
L 515.666606 401.455229 
L 489.831332 401.455229 
z
" clip-path="url(#pdf4ad90e5f)" style="fill: #ff9f43"/>
   </g>
   <g id="patch_19">
    <path d="M 565.817432 418.908562 
L 591.652706 418.908562 
L 591.652706 401.455229 
L 565.817432 401.455229 
z
" clip-path="url(#pdf4ad90e5f)" style="fill: #ff9f43"/>
   </g>
   <g id="patch_20">
    <path d="M 641.803533 418.908562 
L 667.638807 418.908562 
L 667.638807 373.529896 
L 641.803533 373.529896 
z
" clip-path="url(#pdf4ad90e5f)" style="fill: #ff9f43"/>
   </g>
   <g id="patch_21">
    <path d="M 717.789634 418.908562 
L 743.624908 418.908562 
L 743.624908 376.964261 
L 717.789634 376.964261 
z
" clip-path="url(#pdf4ad90e5f)" style="fill: #ff9f43"/>
   </g>
   <g id="patch_22">
    <path d="M 793.775734 418.908562 
L 819.611009 418.908562 
L 819.611009 377.020562 
L 793.775734 377.020562 
z
" clip-path="url(#pdf4ad90e5f)" style="fill: #ff9f43"/>
   </g>
   <g id="text_18">
    <!-- 3 s sustained replay · 50 ms NVML sampling · * native teaching shape -->
    <g style="fill: #a6abb6" transform="translate(47.288281 36.261683) scale(0.1 -0.1)">
     <defs>
      <path id="DejaVuSans-56" d="M 2834 3397 
L 2834 2853 
Q 2591 2978 2328 3040 
Q 2066 3103 1784 3103 
Q 1356 3103 1142 2972 
Q 928 2841 928 2578 
Q 928 2378 1081 2264 
Q 1234 2150 1697 2047 
L 1894 2003 
Q 2506 1872 2764 1633 
Q 3022 1394 3022 966 
Q 3022 478 2636 193 
Q 2250 -91 1575 -91 
Q 1294 -91 989 -36 
Q 684 19 347 128 
L 347 722 
Q 666 556 975 473 
Q 1284 391 1588 391 
Q 1994 391 2212 530 
Q 2431 669 2431 922 
Q 2431 1156 2273 1281 
Q 2116 1406 1581 1522 
L 1381 1569 
Q 847 1681 609 1914 
Q 372 2147 372 2553 
Q 372 3047 722 3315 
Q 1072 3584 1716 3584 
Q 2034 3584 2315 3537 
Q 2597 3491 2834 3397 
z
" transform="scale(0.015625)"/>
      <path id="DejaVuSans-51" d="M 3513 2113 
L 3513 0 
L 2938 0 
L 2938 2094 
Q 2938 2591 2744 2837 
Q 2550 3084 2163 3084 
Q 1697 3084 1428 2787 
Q 1159 2491 1159 1978 
L 1159 0 
L 581 0 
L 581 3500 
L 1159 3500 
L 1159 2956 
Q 1366 3272 1645 3428 
Q 1925 3584 2291 3584 
Q 2894 3584 3203 3211 
Q 3513 2838 3513 2113 
z
" transform="scale(0.015625)"/>
      <path id="DejaVuSans-48" d="M 3597 1894 
L 3597 1613 
L 953 1613 
Q 991 1019 1311 708 
Q 1631 397 2203 397 
Q 2534 397 2845 478 
Q 3156 559 3463 722 
L 3463 178 
Q 3153 47 2828 -22 
Q 2503 -91 2169 -91 
Q 1331 -91 842 396 
Q 353 884 353 1716 
Q 353 2575 817 3079 
Q 1281 3584 2069 3584 
Q 2775 3584 3186 3129 
Q 3597 2675 3597 1894 
z
M 3022 2063 
Q 3016 2534 2758 2815 
Q 2500 3097 2075 3097 
Q 1594 3097 1305 2825 
Q 1016 2553 972 2059 
L 3022 2063 
z
" transform="scale(0.015625)"/>
      <path id="DejaVuSans-47" d="M 2906 2969 
L 2906 4863 
L 3481 4863 
L 3481 0 
L 2906 0 
L 2906 525 
Q 2725 213 2448 61 
Q 2172 -91 1784 -91 
Q 1150 -91 751 415 
Q 353 922 353 1747 
Q 353 2572 751 3078 
Q 1150 3584 1784 3584 
Q 2172 3584 2448 3432 
Q 2725 3281 2906 2969 
z
M 947 1747 
Q 947 1113 1208 752 
Q 1469 391 1925 391 
Q 2381 391 2643 752 
Q 2906 1113 2906 1747 
Q 2906 2381 2643 2742 
Q 2381 3103 1925 3103 
Q 1469 3103 1208 2742 
Q 947 2381 947 1747 
z
" transform="scale(0.015625)"/>
      <path id="DejaVuSans-55" d="M 2631 2963 
Q 2534 3019 2420 3045 
Q 2306 3072 2169 3072 
Q 1681 3072 1420 2755 
Q 1159 2438 1159 1844 
L 1159 0 
L 581 0 
L 581 3500 
L 1159 3500 
L 1159 2956 
Q 1341 3275 1631 3429 
Q 1922 3584 2338 3584 
Q 2397 3584 2469 3576 
Q 2541 3569 2628 3553 
L 2631 2963 
z
" transform="scale(0.015625)"/>
      <path id="DejaVuSans-53" d="M 1159 525 
L 1159 -1331 
L 581 -1331 
L 581 3500 
L 1159 3500 
L 1159 2969 
Q 1341 3281 1617 3432 
Q 1894 3584 2278 3584 
Q 2916 3584 3314 3078 
Q 3713 2572 3713 1747 
Q 3713 922 3314 415 
Q 2916 -91 2278 -91 
Q 1894 -91 1617 61 
Q 1341 213 1159 525 
z
M 3116 1747 
Q 3116 2381 2855 2742 
Q 2594 3103 2138 3103 
Q 1681 3103 1420 2742 
Q 1159 2381 1159 1747 
Q 1159 1113 1420 752 
Q 1681 391 2138 391 
Q 2594 391 2855 752 
Q 3116 1113 3116 1747 
z
" transform="scale(0.015625)"/>
      <path id="DejaVuSans-4f" d="M 603 4863 
L 1178 4863 
L 1178 0 
L 603 0 
L 603 4863 
z
" transform="scale(0.015625)"/>
      <path id="DejaVuSans-79" d="M 684 2619 
L 1344 2619 
L 1344 1825 
L 684 1825 
L 684 2619 
z
" transform="scale(0.015625)"/>
      <path id="DejaVuSans-50" d="M 3328 2828 
Q 3544 3216 3844 3400 
Q 4144 3584 4550 3584 
Q 5097 3584 5394 3201 
Q 5691 2819 5691 2113 
L 5691 0 
L 5113 0 
L 5113 2094 
Q 5113 2597 4934 2840 
Q 4756 3084 4391 3084 
Q 3944 3084 3684 2787 
Q 3425 2491 3425 1978 
L 3425 0 
L 2847 0 
L 2847 2094 
Q 2847 2600 2669 2842 
Q 2491 3084 2119 3084 
Q 1678 3084 1418 2786 
Q 1159 2488 1159 1978 
L 1159 0 
L 581 0 
L 581 3500 
L 1159 3500 
L 1159 2956 
Q 1356 3278 1631 3431 
Q 1906 3584 2284 3584 
Q 2666 3584 2933 3390 
Q 3200 3197 3328 2828 
z
" transform="scale(0.015625)"/>
      <path id="DejaVuSans-4a" d="M 2906 1791 
Q 2906 2416 2648 2759 
Q 2391 3103 1925 3103 
Q 1463 3103 1205 2759 
Q 947 2416 947 1791 
Q 947 1169 1205 825 
Q 1463 481 1925 481 
Q 2391 481 2648 825 
Q 2906 1169 2906 1791 
z
M 3481 434 
Q 3481 -459 3084 -895 
Q 2688 -1331 1869 -1331 
Q 1566 -1331 1297 -1286 
Q 1028 -1241 775 -1147 
L 775 -588 
Q 1028 -725 1275 -790 
Q 1522 -856 1778 -856 
Q 2344 -856 2625 -561 
Q 2906 -266 2906 331 
L 2906 616 
Q 2728 306 2450 153 
Q 2172 0 1784 0 
Q 1141 0 747 490 
Q 353 981 353 1791 
Q 353 2603 747 3093 
Q 1141 3584 1784 3584 
Q 2172 3584 2450 3431 
Q 2728 3278 2906 2969 
L 2906 3500 
L 3481 3500 
L 3481 434 
z
" transform="scale(0.015625)"/>
      <path id="DejaVuSans-4b" d="M 3513 2113 
L 3513 0 
L 2938 0 
L 2938 2094 
Q 2938 2591 2744 2837 
Q 2550 3084 2163 3084 
Q 1697 3084 1428 2787 
Q 1159 2491 1159 1978 
L 1159 0 
L 581 0 
L 581 4863 
L 1159 4863 
L 1159 2956 
Q 1366 3272 1645 3428 
Q 1925 3584 2291 3584 
Q 2894 3584 3203 3211 
Q 3513 2838 3513 2113 
z
" transform="scale(0.015625)"/>
     </defs>
     <use xlink:href="#DejaVuSans-16"/>
     <use xlink:href="#DejaVuSans-3" transform="translate(63.625 0)"/>
     <use xlink:href="#DejaVuSans-56" transform="translate(95.40625 0)"/>
     <use xlink:href="#DejaVuSans-3" transform="translate(147.5 0)"/>
     <use xlink:href="#DejaVuSans-56" transform="translate(179.28125 0)"/>
     <use xlink:href="#DejaVuSans-58" transform="translate(231.375 0)"/>
     <use xlink:href="#DejaVuSans-56" transform="translate(294.75 0)"/>
     <use xlink:href="#DejaVuSans-57" transform="translate(346.84375 0)"/>
     <use xlink:href="#DejaVuSans-44" transform="translate(386.046875 0)"/>
     <use xlink:href="#DejaVuSans-4c" transform="translate(447.328125 0)"/>
     <use xlink:href="#DejaVuSans-51" transform="translate(475.109375 0)"/>
     <use xlink:href="#DejaVuSans-48" transform="translate(538.484375 0)"/>
     <use xlink:href="#DejaVuSans-47" transform="translate(600.015625 0)"/>
     <use xlink:href="#DejaVuSans-3" transform="translate(663.5 0)"/>
     <use xlink:href="#DejaVuSans-55" transform="translate(695.28125 0)"/>
     <use xlink:href="#DejaVuSans-48" transform="translate(734.1875 0)"/>
     <use xlink:href="#DejaVuSans-53" transform="translate(795.71875 0)"/>
     <use xlink:href="#DejaVuSans-4f" transform="translate(859.203125 0)"/>
     <use xlink:href="#DejaVuSans-44" transform="translate(886.984375 0)"/>
     <use xlink:href="#DejaVuSans-5c" transform="translate(948.265625 0)"/>
     <use xlink:href="#DejaVuSans-3" transform="translate(1007.453125 0)"/>
     <use xlink:href="#DejaVuSans-79" transform="translate(1039.234375 0)"/>
     <use xlink:href="#DejaVuSans-3" transform="translate(1071.015625 0)"/>
     <use xlink:href="#DejaVuSans-18" transform="translate(1102.796875 0)"/>
     <use xlink:href="#DejaVuSans-13" transform="translate(1166.421875 0)"/>
     <use xlink:href="#DejaVuSans-3" transform="translate(1230.046875 0)"/>
     <use xlink:href="#DejaVuSans-50" transform="translate(1261.828125 0)"/>
     <use xlink:href="#DejaVuSans-56" transform="translate(1359.234375 0)"/>
     <use xlink:href="#DejaVuSans-3" transform="translate(1411.328125 0)"/>
     <use xlink:href="#DejaVuSans-31" transform="translate(1443.109375 0)"/>
     <use xlink:href="#DejaVuSans-39" transform="translate(1517.921875 0)"/>
     <use xlink:href="#DejaVuSans-30" transform="translate(1586.328125 0)"/>
     <use xlink:href="#DejaVuSans-2f" transform="translate(1672.609375 0)"/>
     <use xlink:href="#DejaVuSans-3" transform="translate(1728.328125 0)"/>
     <use xlink:href="#DejaVuSans-56" transform="translate(1760.109375 0)"/>
     <use xlink:href="#DejaVuSans-44" transform="translate(1812.203125 0)"/>
     <use xlink:href="#DejaVuSans-50" transform="translate(1873.484375 0)"/>
     <use xlink:href="#DejaVuSans-53" transform="translate(1970.890625 0)"/>
     <use xlink:href="#DejaVuSans-4f" transform="translate(2034.375 0)"/>
     <use xlink:href="#DejaVuSans-4c" transform="translate(2062.15625 0)"/>
     <use xlink:href="#DejaVuSans-51" transform="translate(2089.9375 0)"/>
     <use xlink:href="#DejaVuSans-4a" transform="translate(2153.3125 0)"/>
     <use xlink:href="#DejaVuSans-3" transform="translate(2216.796875 0)"/>
     <use xlink:href="#DejaVuSans-79" transform="translate(2248.578125 0)"/>
     <use xlink:href="#DejaVuSans-3" transform="translate(2280.359375 0)"/>
     <use xlink:href="#DejaVuSans-d" transform="translate(2312.140625 0)"/>
     <use xlink:href="#DejaVuSans-3" transform="translate(2362.140625 0)"/>
     <use xlink:href="#DejaVuSans-51" transform="translate(2393.921875 0)"/>
     <use xlink:href="#DejaVuSans-44" transform="translate(2457.296875 0)"/>
     <use xlink:href="#DejaVuSans-57" transform="translate(2518.578125 0)"/>
     <use xlink:href="#DejaVuSans-4c" transform="translate(2557.78125 0)"/>
     <use xlink:href="#DejaVuSans-59" transform="translate(2585.5625 0)"/>
     <use xlink:href="#DejaVuSans-48" transform="translate(2644.75 0)"/>
     <use xlink:href="#DejaVuSans-3" transform="translate(2706.28125 0)"/>
     <use xlink:href="#DejaVuSans-57" transform="translate(2738.0625 0)"/>
     <use xlink:href="#DejaVuSans-48" transform="translate(2777.265625 0)"/>
     <use xlink:href="#DejaVuSans-44" transform="translate(2838.796875 0)"/>
     <use xlink:href="#DejaVuSans-46" transform="translate(2900.078125 0)"/>
     <use xlink:href="#DejaVuSans-4b" transform="translate(2955.0625 0)"/>
     <use xlink:href="#DejaVuSans-4c" transform="translate(3018.4375 0)"/>
     <use xlink:href="#DejaVuSans-51" transform="translate(3046.21875 0)"/>
     <use xlink:href="#DejaVuSans-4a" transform="translate(3109.59375 0)"/>
     <use xlink:href="#DejaVuSans-3" transform="translate(3173.078125 0)"/>
     <use xlink:href="#DejaVuSans-56" transform="translate(3204.859375 0)"/>
     <use xlink:href="#DejaVuSans-4b" transform="translate(3256.953125 0)"/>
     <use xlink:href="#DejaVuSans-44" transform="translate(3320.328125 0)"/>
     <use xlink:href="#DejaVuSans-53" transform="translate(3381.609375 0)"/>
     <use xlink:href="#DejaVuSans-48" transform="translate(3445.09375 0)"/>
    </g>
   </g>
   <g id="text_19">
    <!-- Busy is not the same as fed -->
    <g style="fill: #f5f4ef" transform="translate(47.288281 23.916562) scale(0.22 -0.22)">
     <defs>
      <path id="DejaVuSans-Bold-25" d="M 2456 2859 
Q 2741 2859 2887 2984 
Q 3034 3109 3034 3353 
Q 3034 3594 2887 3720 
Q 2741 3847 2456 3847 
L 1791 3847 
L 1791 2859 
L 2456 2859 
z
M 2497 819 
Q 2859 819 3042 972 
Q 3225 1125 3225 1434 
Q 3225 1738 3044 1889 
Q 2863 2041 2497 2041 
L 1791 2041 
L 1791 819 
L 2497 819 
z
M 3616 2497 
Q 4003 2384 4215 2081 
Q 4428 1778 4428 1338 
Q 4428 663 3972 331 
Q 3516 0 2584 0 
L 588 0 
L 588 4666 
L 2394 4666 
Q 3366 4666 3802 4372 
Q 4238 4078 4238 3431 
Q 4238 3091 4078 2852 
Q 3919 2613 3616 2497 
z
" transform="scale(0.015625)"/>
      <path id="DejaVuSans-Bold-58" d="M 500 1363 
L 500 3500 
L 1625 3500 
L 1625 3150 
Q 1625 2866 1622 2436 
Q 1619 2006 1619 1863 
Q 1619 1441 1641 1255 
Q 1663 1069 1716 984 
Q 1784 875 1895 815 
Q 2006 756 2150 756 
Q 2500 756 2700 1025 
Q 2900 1294 2900 1772 
L 2900 3500 
L 4019 3500 
L 4019 0 
L 2900 0 
L 2900 506 
Q 2647 200 2364 54 
Q 2081 -91 1741 -91 
Q 1134 -91 817 281 
Q 500 653 500 1363 
z
" transform="scale(0.015625)"/>
      <path id="DejaVuSans-Bold-56" d="M 3272 3391 
L 3272 2541 
Q 2913 2691 2578 2766 
Q 2244 2841 1947 2841 
Q 1628 2841 1473 2761 
Q 1319 2681 1319 2516 
Q 1319 2381 1436 2309 
Q 1553 2238 1856 2203 
L 2053 2175 
Q 2913 2066 3209 1816 
Q 3506 1566 3506 1031 
Q 3506 472 3093 190 
Q 2681 -91 1863 -91 
Q 1516 -91 1145 -36 
Q 775 19 384 128 
L 384 978 
Q 719 816 1070 734 
Q 1422 653 1784 653 
Q 2113 653 2278 743 
Q 2444 834 2444 1013 
Q 2444 1163 2330 1236 
Q 2216 1309 1875 1350 
L 1678 1375 
Q 931 1469 631 1722 
Q 331 1975 331 2491 
Q 331 3047 712 3315 
Q 1094 3584 1881 3584 
Q 2191 3584 2531 3537 
Q 2872 3491 3272 3391 
z
" transform="scale(0.015625)"/>
      <path id="DejaVuSans-Bold-5c" d="M 78 3500 
L 1197 3500 
L 2138 1125 
L 2938 3500 
L 4056 3500 
L 2584 -331 
Q 2363 -916 2067 -1148 
Q 1772 -1381 1288 -1381 
L 641 -1381 
L 641 -647 
L 991 -647 
Q 1275 -647 1404 -556 
Q 1534 -466 1606 -231 
L 1638 -134 
L 78 3500 
z
" transform="scale(0.015625)"/>
      <path id="DejaVuSans-Bold-3" transform="scale(0.015625)"/>
      <path id="DejaVuSans-Bold-4c" d="M 538 3500 
L 1656 3500 
L 1656 0 
L 538 0 
L 538 3500 
z
M 538 4863 
L 1656 4863 
L 1656 3950 
L 538 3950 
L 538 4863 
z
" transform="scale(0.015625)"/>
      <path id="DejaVuSans-Bold-51" d="M 4056 2131 
L 4056 0 
L 2931 0 
L 2931 347 
L 2931 1631 
Q 2931 2084 2911 2256 
Q 2891 2428 2841 2509 
Q 2775 2619 2662 2680 
Q 2550 2741 2406 2741 
Q 2056 2741 1856 2470 
Q 1656 2200 1656 1722 
L 1656 0 
L 538 0 
L 538 3500 
L 1656 3500 
L 1656 2988 
Q 1909 3294 2193 3439 
Q 2478 3584 2822 3584 
Q 3428 3584 3742 3212 
Q 4056 2841 4056 2131 
z
" transform="scale(0.015625)"/>
      <path id="DejaVuSans-Bold-52" d="M 2203 2784 
Q 1831 2784 1636 2517 
Q 1441 2250 1441 1747 
Q 1441 1244 1636 976 
Q 1831 709 2203 709 
Q 2569 709 2762 976 
Q 2956 1244 2956 1747 
Q 2956 2250 2762 2517 
Q 2569 2784 2203 2784 
z
M 2203 3584 
Q 3106 3584 3614 3096 
Q 4122 2609 4122 1747 
Q 4122 884 3614 396 
Q 3106 -91 2203 -91 
Q 1297 -91 786 396 
Q 275 884 275 1747 
Q 275 2609 786 3096 
Q 1297 3584 2203 3584 
z
" transform="scale(0.015625)"/>
      <path id="DejaVuSans-Bold-57" d="M 1759 4494 
L 1759 3500 
L 2913 3500 
L 2913 2700 
L 1759 2700 
L 1759 1216 
Q 1759 972 1856 886 
Q 1953 800 2241 800 
L 2816 800 
L 2816 0 
L 1856 0 
Q 1194 0 917 276 
Q 641 553 641 1216 
L 641 2700 
L 84 2700 
L 84 3500 
L 641 3500 
L 641 4494 
L 1759 4494 
z
" transform="scale(0.015625)"/>
      <path id="DejaVuSans-Bold-4b" d="M 4056 2131 
L 4056 0 
L 2931 0 
L 2931 347 
L 2931 1625 
Q 2931 2084 2911 2256 
Q 2891 2428 2841 2509 
Q 2775 2619 2662 2680 
Q 2550 2741 2406 2741 
Q 2056 2741 1856 2470 
Q 1656 2200 1656 1722 
L 1656 0 
L 538 0 
L 538 4863 
L 1656 4863 
L 1656 2988 
Q 1909 3294 2193 3439 
Q 2478 3584 2822 3584 
Q 3428 3584 3742 3212 
Q 4056 2841 4056 2131 
z
" transform="scale(0.015625)"/>
      <path id="DejaVuSans-Bold-48" d="M 4031 1759 
L 4031 1441 
L 1416 1441 
Q 1456 1047 1700 850 
Q 1944 653 2381 653 
Q 2734 653 3104 758 
Q 3475 863 3866 1075 
L 3866 213 
Q 3469 63 3072 -14 
Q 2675 -91 2278 -91 
Q 1328 -91 801 392 
Q 275 875 275 1747 
Q 275 2603 792 3093 
Q 1309 3584 2216 3584 
Q 3041 3584 3536 3087 
Q 4031 2591 4031 1759 
z
M 2881 2131 
Q 2881 2450 2695 2645 
Q 2509 2841 2209 2841 
Q 1884 2841 1681 2658 
Q 1478 2475 1428 2131 
L 2881 2131 
z
" transform="scale(0.015625)"/>
      <path id="DejaVuSans-Bold-44" d="M 2106 1575 
Q 1756 1575 1579 1456 
Q 1403 1338 1403 1106 
Q 1403 894 1545 773 
Q 1688 653 1941 653 
Q 2256 653 2472 879 
Q 2688 1106 2688 1447 
L 2688 1575 
L 2106 1575 
z
M 3816 1997 
L 3816 0 
L 2688 0 
L 2688 519 
Q 2463 200 2181 54 
Q 1900 -91 1497 -91 
Q 953 -91 614 226 
Q 275 544 275 1050 
Q 275 1666 698 1953 
Q 1122 2241 2028 2241 
L 2688 2241 
L 2688 2328 
Q 2688 2594 2478 2717 
Q 2269 2841 1825 2841 
Q 1466 2841 1156 2769 
Q 847 2697 581 2553 
L 581 3406 
Q 941 3494 1303 3539 
Q 1666 3584 2028 3584 
Q 2975 3584 3395 3211 
Q 3816 2838 3816 1997 
z
" transform="scale(0.015625)"/>
      <path id="DejaVuSans-Bold-50" d="M 3781 2919 
Q 3994 3244 4286 3414 
Q 4578 3584 4928 3584 
Q 5531 3584 5847 3212 
Q 6163 2841 6163 2131 
L 6163 0 
L 5038 0 
L 5038 1825 
Q 5041 1866 5042 1909 
Q 5044 1953 5044 2034 
Q 5044 2406 4934 2573 
Q 4825 2741 4581 2741 
Q 4263 2741 4089 2478 
Q 3916 2216 3909 1719 
L 3909 0 
L 2784 0 
L 2784 1825 
Q 2784 2406 2684 2573 
Q 2584 2741 2328 2741 
Q 2006 2741 1831 2477 
Q 1656 2213 1656 1722 
L 1656 0 
L 531 0 
L 531 3500 
L 1656 3500 
L 1656 2988 
Q 1863 3284 2130 3434 
Q 2397 3584 2719 3584 
Q 3081 3584 3359 3409 
Q 3638 3234 3781 2919 
z
" transform="scale(0.015625)"/>
      <path id="DejaVuSans-Bold-49" d="M 2841 4863 
L 2841 4128 
L 2222 4128 
Q 1984 4128 1890 4042 
Q 1797 3956 1797 3744 
L 1797 3500 
L 2753 3500 
L 2753 2700 
L 1797 2700 
L 1797 0 
L 678 0 
L 678 2700 
L 122 2700 
L 122 3500 
L 678 3500 
L 678 3744 
Q 678 4316 997 4589 
Q 1316 4863 1984 4863 
L 2841 4863 
z
" transform="scale(0.015625)"/>
      <path id="DejaVuSans-Bold-47" d="M 2919 2988 
L 2919 4863 
L 4044 4863 
L 4044 0 
L 2919 0 
L 2919 506 
Q 2688 197 2409 53 
Q 2131 -91 1766 -91 
Q 1119 -91 703 423 
Q 288 938 288 1747 
Q 288 2556 703 3070 
Q 1119 3584 1766 3584 
Q 2128 3584 2408 3439 
Q 2688 3294 2919 2988 
z
M 2181 722 
Q 2541 722 2730 984 
Q 2919 1247 2919 1747 
Q 2919 2247 2730 2509 
Q 2541 2772 2181 2772 
Q 1825 2772 1636 2509 
Q 1447 2247 1447 1747 
Q 1447 1247 1636 984 
Q 1825 722 2181 722 
z
" transform="scale(0.015625)"/>
     </defs>
     <use xlink:href="#DejaVuSans-Bold-25"/>
     <use xlink:href="#DejaVuSans-Bold-58" transform="translate(76.21875 0)"/>
     <use xlink:href="#DejaVuSans-Bold-56" transform="translate(147.40625 0)"/>
     <use xlink:href="#DejaVuSans-Bold-5c" transform="translate(206.921875 0)"/>
     <use xlink:href="#DejaVuSans-Bold-3" transform="translate(272.109375 0)"/>
     <use xlink:href="#DejaVuSans-Bold-4c" transform="translate(306.921875 0)"/>
     <use xlink:href="#DejaVuSans-Bold-56" transform="translate(341.203125 0)"/>
     <use xlink:href="#DejaVuSans-Bold-3" transform="translate(400.71875 0)"/>
     <use xlink:href="#DejaVuSans-Bold-51" transform="translate(435.53125 0)"/>
     <use xlink:href="#DejaVuSans-Bold-52" transform="translate(506.71875 0)"/>
     <use xlink:href="#DejaVuSans-Bold-57" transform="translate(575.421875 0)"/>
     <use xlink:href="#DejaVuSans-Bold-3" transform="translate(623.21875 0)"/>
     <use xlink:href="#DejaVuSans-Bold-57" transform="translate(658.03125 0)"/>
     <use xlink:href="#DejaVuSans-Bold-4b" transform="translate(705.828125 0)"/>
     <use xlink:href="#DejaVuSans-Bold-48" transform="translate(777.015625 0)"/>
     <use xlink:href="#DejaVuSans-Bold-3" transform="translate(844.84375 0)"/>
     <use xlink:href="#DejaVuSans-Bold-56" transform="translate(879.65625 0)"/>
     <use xlink:href="#DejaVuSans-Bold-44" transform="translate(939.171875 0)"/>
     <use xlink:href="#DejaVuSans-Bold-50" transform="translate(1006.65625 0)"/>
     <use xlink:href="#DejaVuSans-Bold-48" transform="translate(1110.859375 0)"/>
     <use xlink:href="#DejaVuSans-Bold-3" transform="translate(1178.6875 0)"/>
     <use xlink:href="#DejaVuSans-Bold-44" transform="translate(1213.5 0)"/>
     <use xlink:href="#DejaVuSans-Bold-56" transform="translate(1280.984375 0)"/>
     <use xlink:href="#DejaVuSans-Bold-3" transform="translate(1340.5 0)"/>
     <use xlink:href="#DejaVuSans-Bold-49" transform="translate(1375.3125 0)"/>
     <use xlink:href="#DejaVuSans-Bold-48" transform="translate(1418.8125 0)"/>
     <use xlink:href="#DejaVuSans-Bold-47" transform="translate(1486.640625 0)"/>
    </g>
   </g>
   <g id="legend_1">
    <g id="patch_23">
     <path d="M 56.288281 58.515 
L 76.288281 58.515 
L 76.288281 51.515 
L 56.288281 51.515 
z
" style="fill: #55d6be"/>
    </g>
    <g id="text_20">
     <!-- GPU active -->
     <g style="fill: #f5f4ef" transform="translate(84.288281 58.515) scale(0.1 -0.1)">
      <defs>
       <path id="DejaVuSans-2a" d="M 3809 666 
L 3809 1919 
L 2778 1919 
L 2778 2438 
L 4434 2438 
L 4434 434 
Q 4069 175 3628 42 
Q 3188 -91 2688 -91 
Q 1594 -91 976 548 
Q 359 1188 359 2328 
Q 359 3472 976 4111 
Q 1594 4750 2688 4750 
Q 3144 4750 3555 4637 
Q 3966 4525 4313 4306 
L 4313 3634 
Q 3963 3931 3569 4081 
Q 3175 4231 2741 4231 
Q 1884 4231 1454 3753 
Q 1025 3275 1025 2328 
Q 1025 1384 1454 906 
Q 1884 428 2741 428 
Q 3075 428 3337 486 
Q 3600 544 3809 666 
z
" transform="scale(0.015625)"/>
       <path id="DejaVuSans-33" d="M 1259 4147 
L 1259 2394 
L 2053 2394 
Q 2494 2394 2734 2622 
Q 2975 2850 2975 3272 
Q 2975 3691 2734 3919 
Q 2494 4147 2053 4147 
L 1259 4147 
z
M 628 4666 
L 2053 4666 
Q 2838 4666 3239 4311 
Q 3641 3956 3641 3272 
Q 3641 2581 3239 2228 
Q 2838 1875 2053 1875 
L 1259 1875 
L 1259 0 
L 628 0 
L 628 4666 
z
" transform="scale(0.015625)"/>
       <path id="DejaVuSans-38" d="M 556 4666 
L 1191 4666 
L 1191 1831 
Q 1191 1081 1462 751 
Q 1734 422 2344 422 
Q 2950 422 3222 751 
Q 3494 1081 3494 1831 
L 3494 4666 
L 4128 4666 
L 4128 1753 
Q 4128 841 3676 375 
Q 3225 -91 2344 -91 
Q 1459 -91 1007 375 
Q 556 841 556 1753 
L 556 4666 
z
" transform="scale(0.015625)"/>
      </defs>
      <use xlink:href="#DejaVuSans-2a"/>
      <use xlink:href="#DejaVuSans-33" transform="translate(77.484375 0)"/>
      <use xlink:href="#DejaVuSans-38" transform="translate(137.78125 0)"/>
      <use xlink:href="#DejaVuSans-3" transform="translate(210.96875 0)"/>
      <use xlink:href="#DejaVuSans-44" transform="translate(242.75 0)"/>
      <use xlink:href="#DejaVuSans-46" transform="translate(304.03125 0)"/>
      <use xlink:href="#DejaVuSans-57" transform="translate(359.015625 0)"/>
      <use xlink:href="#DejaVuSans-4c" transform="translate(398.21875 0)"/>
      <use xlink:href="#DejaVuSans-59" transform="translate(426 0)"/>
      <use xlink:href="#DejaVuSans-48" transform="translate(485.1875 0)"/>
     </g>
    </g>
    <g id="patch_24">
     <path d="M 56.288281 73.515781 
L 76.288281 73.515781 
L 76.288281 66.515781 
L 56.288281 66.515781 
z
" style="fill: #ff9f43"/>
    </g>
    <g id="text_21">
     <!-- Memory-controller active -->
     <g style="fill: #f5f4ef" transform="translate(84.288281 73.515781) scale(0.1 -0.1)">
      <defs>
       <path id="DejaVuSans-52" d="M 1959 3097 
Q 1497 3097 1228 2736 
Q 959 2375 959 1747 
Q 959 1119 1226 758 
Q 1494 397 1959 397 
Q 2419 397 2687 759 
Q 2956 1122 2956 1747 
Q 2956 2369 2687 2733 
Q 2419 3097 1959 3097 
z
M 1959 3584 
Q 2709 3584 3137 3096 
Q 3566 2609 3566 1747 
Q 3566 888 3137 398 
Q 2709 -91 1959 -91 
Q 1206 -91 779 398 
Q 353 888 353 1747 
Q 353 2609 779 3096 
Q 1206 3584 1959 3584 
z
" transform="scale(0.015625)"/>
       <path id="DejaVuSans-10" d="M 313 2009 
L 1997 2009 
L 1997 1497 
L 313 1497 
L 313 2009 
z
" transform="scale(0.015625)"/>
      </defs>
      <use xlink:href="#DejaVuSans-30"/>
      <use xlink:href="#DejaVuSans-48" transform="translate(86.28125 0)"/>
      <use xlink:href="#DejaVuSans-50" transform="translate(147.8125 0)"/>
      <use xlink:href="#DejaVuSans-52" transform="translate(245.21875 0)"/>
      <use xlink:href="#DejaVuSans-55" transform="translate(306.40625 0)"/>
      <use xlink:href="#DejaVuSans-5c" transform="translate(347.515625 0)"/>
      <use xlink:href="#DejaVuSans-10" transform="translate(404.953125 0)"/>
      <use xlink:href="#DejaVuSans-46" transform="translate(441.03125 0)"/>
      <use xlink:href="#DejaVuSans-52" transform="translate(496.015625 0)"/>
      <use xlink:href="#DejaVuSans-51" transform="translate(557.203125 0)"/>
      <use xlink:href="#DejaVuSans-57" transform="translate(620.578125 0)"/>
      <use xlink:href="#DejaVuSans-55" transform="translate(659.78125 0)"/>
      <use xlink:href="#DejaVuSans-52" transform="translate(698.6875 0)"/>
      <use xlink:href="#DejaVuSans-4f" transform="translate(759.875 0)"/>
      <use xlink:href="#DejaVuSans-4f" transform="translate(787.65625 0)"/>
      <use xlink:href="#DejaVuSans-48" transform="translate(815.4375 0)"/>
      <use xlink:href="#DejaVuSans-55" transform="translate(876.96875 0)"/>
      <use xlink:href="#DejaVuSans-3" transform="translate(918.078125 0)"/>
      <use xlink:href="#DejaVuSans-44" transform="translate(949.859375 0)"/>
      <use xlink:href="#DejaVuSans-46" transform="translate(1011.140625 0)"/>
      <use xlink:href="#DejaVuSans-57" transform="translate(1066.125 0)"/>
      <use xlink:href="#DejaVuSans-4c" transform="translate(1105.328125 0)"/>
      <use xlink:href="#DejaVuSans-59" transform="translate(1133.109375 0)"/>
      <use xlink:href="#DejaVuSans-48" transform="translate(1192.296875 0)"/>
     </g>
    </g>
   </g>
  </g>
  <g id="axes_2">
   <g id="matplotlib.axis_3">
    <g id="ytick_7">
     <g id="line2d_23">
      <defs>
       <path id="mae7c87931f" d="M 0 0 
L 3.5 0 
" style="stroke: #b78cff; stroke-width: 0.8"/>
      </defs>
      <g>
       <use xlink:href="#mae7c87931f" x="856.388281" y="402.108223" style="fill: #b78cff; stroke: #b78cff; stroke-width: 0.8"/>
      </g>
     </g>
     <g id="text_22">
      <!-- 200 -->
      <g style="fill: #b78cff" transform="translate(863.388281 405.907051) scale(0.1 -0.1)">
       <use xlink:href="#DejaVuSans-15"/>
       <use xlink:href="#DejaVuSans-13" transform="translate(63.625 0)"/>
       <use xlink:href="#DejaVuSans-13" transform="translate(127.25 0)"/>
      </g>
     </g>
    </g>
    <g id="ytick_8">
     <g id="line2d_24">
      <g>
       <use xlink:href="#mae7c87931f" x="856.388281" y="355.079978" style="fill: #b78cff; stroke: #b78cff; stroke-width: 0.8"/>
      </g>
     </g>
     <g id="text_23">
      <!-- 300 -->
      <g style="fill: #b78cff" transform="translate(863.388281 358.878807) scale(0.1 -0.1)">
       <use xlink:href="#DejaVuSans-16"/>
       <use xlink:href="#DejaVuSans-13" transform="translate(63.625 0)"/>
       <use xlink:href="#DejaVuSans-13" transform="translate(127.25 0)"/>
      </g>
     </g>
    </g>
    <g id="ytick_9">
     <g id="line2d_25">
      <g>
       <use xlink:href="#mae7c87931f" x="856.388281" y="308.051734" style="fill: #b78cff; stroke: #b78cff; stroke-width: 0.8"/>
      </g>
     </g>
     <g id="text_24">
      <!-- 400 -->
      <g style="fill: #b78cff" transform="translate(863.388281 311.850562) scale(0.1 -0.1)">
       <use xlink:href="#DejaVuSans-17"/>
       <use xlink:href="#DejaVuSans-13" transform="translate(63.625 0)"/>
       <use xlink:href="#DejaVuSans-13" transform="translate(127.25 0)"/>
      </g>
     </g>
    </g>
    <g id="ytick_10">
     <g id="line2d_26">
      <g>
       <use xlink:href="#mae7c87931f" x="856.388281" y="261.02349" style="fill: #b78cff; stroke: #b78cff; stroke-width: 0.8"/>
      </g>
     </g>
     <g id="text_25">
      <!-- 500 -->
      <g style="fill: #b78cff" transform="translate(863.388281 264.822318) scale(0.1 -0.1)">
       <use xlink:href="#DejaVuSans-18"/>
       <use xlink:href="#DejaVuSans-13" transform="translate(63.625 0)"/>
       <use xlink:href="#DejaVuSans-13" transform="translate(127.25 0)"/>
      </g>
     </g>
    </g>
    <g id="ytick_11">
     <g id="line2d_27">
      <g>
       <use xlink:href="#mae7c87931f" x="856.388281" y="213.995245" style="fill: #b78cff; stroke: #b78cff; stroke-width: 0.8"/>
      </g>
     </g>
     <g id="text_26">
      <!-- 600 -->
      <g style="fill: #b78cff" transform="translate(863.388281 217.794073) scale(0.1 -0.1)">
       <use xlink:href="#DejaVuSans-19"/>
       <use xlink:href="#DejaVuSans-13" transform="translate(63.625 0)"/>
       <use xlink:href="#DejaVuSans-13" transform="translate(127.25 0)"/>
      </g>
     </g>
    </g>
    <g id="ytick_12">
     <g id="line2d_28">
      <g>
       <use xlink:href="#mae7c87931f" x="856.388281" y="166.967001" style="fill: #b78cff; stroke: #b78cff; stroke-width: 0.8"/>
      </g>
     </g>
     <g id="text_27">
      <!-- 700 -->
      <g style="fill: #b78cff" transform="translate(863.388281 170.765829) scale(0.1 -0.1)">
       <use xlink:href="#DejaVuSans-1a"/>
       <use xlink:href="#DejaVuSans-13" transform="translate(63.625 0)"/>
       <use xlink:href="#DejaVuSans-13" transform="translate(127.25 0)"/>
      </g>
     </g>
    </g>
    <g id="ytick_13">
     <g id="line2d_29">
      <g>
       <use xlink:href="#mae7c87931f" x="856.388281" y="119.938756" style="fill: #b78cff; stroke: #b78cff; stroke-width: 0.8"/>
      </g>
     </g>
     <g id="text_28">
      <!-- 800 -->
      <g style="fill: #b78cff" transform="translate(863.388281 123.737584) scale(0.1 -0.1)">
       <use xlink:href="#DejaVuSans-1b"/>
       <use xlink:href="#DejaVuSans-13" transform="translate(63.625 0)"/>
       <use xlink:href="#DejaVuSans-13" transform="translate(127.25 0)"/>
      </g>
     </g>
    </g>
    <g id="ytick_14">
     <g id="line2d_30">
      <g>
       <use xlink:href="#mae7c87931f" x="856.388281" y="72.910512" style="fill: #b78cff; stroke: #b78cff; stroke-width: 0.8"/>
      </g>
     </g>
     <g id="text_29">
      <!-- 900 -->
      <g style="fill: #b78cff" transform="translate(863.388281 76.70934) scale(0.1 -0.1)">
       <use xlink:href="#DejaVuSans-1c"/>
       <use xlink:href="#DejaVuSans-13" transform="translate(63.625 0)"/>
       <use xlink:href="#DejaVuSans-13" transform="translate(127.25 0)"/>
      </g>
     </g>
    </g>
    <g id="text_30">
     <!-- Board power (W) -->
     <g style="fill: #b78cff" transform="translate(894.074219 272.586781) rotate(-90) scale(0.1 -0.1)">
      <defs>
       <path id="DejaVuSans-5a" d="M 269 3500 
L 844 3500 
L 1563 769 
L 2278 3500 
L 2956 3500 
L 3675 769 
L 4391 3500 
L 4966 3500 
L 4050 0 
L 3372 0 
L 2619 2869 
L 1863 0 
L 1184 0 
L 269 3500 
z
" transform="scale(0.015625)"/>
       <path id="DejaVuSans-3a" d="M 213 4666 
L 850 4666 
L 1831 722 
L 2809 4666 
L 3519 4666 
L 4500 722 
L 5478 4666 
L 6119 4666 
L 4947 0 
L 4153 0 
L 3169 4050 
L 2175 0 
L 1381 0 
L 213 4666 
z
" transform="scale(0.015625)"/>
      </defs>
      <use xlink:href="#DejaVuSans-25"/>
      <use xlink:href="#DejaVuSans-52" transform="translate(68.609375 0)"/>
      <use xlink:href="#DejaVuSans-44" transform="translate(129.796875 0)"/>
      <use xlink:href="#DejaVuSans-55" transform="translate(191.078125 0)"/>
      <use xlink:href="#DejaVuSans-47" transform="translate(230.4375 0)"/>
      <use xlink:href="#DejaVuSans-3" transform="translate(293.921875 0)"/>
      <use xlink:href="#DejaVuSans-53" transform="translate(325.703125 0)"/>
      <use xlink:href="#DejaVuSans-52" transform="translate(389.1875 0)"/>
      <use xlink:href="#DejaVuSans-5a" transform="translate(450.375 0)"/>
      <use xlink:href="#DejaVuSans-48" transform="translate(532.15625 0)"/>
      <use xlink:href="#DejaVuSans-55" transform="translate(593.6875 0)"/>
      <use xlink:href="#DejaVuSans-3" transform="translate(634.796875 0)"/>
      <use xlink:href="#DejaVuSans-b" transform="translate(666.578125 0)"/>
      <use xlink:href="#DejaVuSans-3a" transform="translate(705.59375 0)"/>
      <use xlink:href="#DejaVuSans-c" transform="translate(804.46875 0)"/>
     </g>
    </g>
   </g>
   <g id="line2d_31">
    <path d="M 109.900828 401.772562 
L 185.886929 401.565297 
L 261.87303 244.165369 
L 337.85913 263.022126 
L 413.845231 147.22314 
L 489.831332 85.620618 
L 565.817432 91.081755 
L 641.803533 60.394476 
L 717.789634 59.052562 
L 793.775734 63.718758 
" clip-path="url(#pdf4ad90e5f)" style="fill: none; stroke: #b78cff; stroke-width: 2.4; stroke-linecap: square"/>
    <defs>
     <path id="m167fe0e8dd" d="M 0 3 
C 0.795609 3 1.55874 2.683901 2.12132 2.12132 
C 2.683901 1.55874 3 0.795609 3 0 
C 3 -0.795609 2.683901 -1.55874 2.12132 -2.12132 
C 1.55874 -2.683901 0.795609 -3 0 -3 
C -0.795609 -3 -1.55874 -2.683901 -2.12132 -2.12132 
C -2.683901 -1.55874 -3 -0.795609 -3 0 
C -3 0.795609 -2.683901 1.55874 -2.12132 2.12132 
C -1.55874 2.683901 -0.795609 3 0 3 
z
" style="stroke: #b78cff"/>
    </defs>
    <g clip-path="url(#pdf4ad90e5f)">
     <use xlink:href="#m167fe0e8dd" x="109.900828" y="401.772562" style="fill: #b78cff; stroke: #b78cff"/>
     <use xlink:href="#m167fe0e8dd" x="185.886929" y="401.565297" style="fill: #b78cff; stroke: #b78cff"/>
     <use xlink:href="#m167fe0e8dd" x="261.87303" y="244.165369" style="fill: #b78cff; stroke: #b78cff"/>
     <use xlink:href="#m167fe0e8dd" x="337.85913" y="263.022126" style="fill: #b78cff; stroke: #b78cff"/>
     <use xlink:href="#m167fe0e8dd" x="413.845231" y="147.22314" style="fill: #b78cff; stroke: #b78cff"/>
     <use xlink:href="#m167fe0e8dd" x="489.831332" y="85.620618" style="fill: #b78cff; stroke: #b78cff"/>
     <use xlink:href="#m167fe0e8dd" x="565.817432" y="91.081755" style="fill: #b78cff; stroke: #b78cff"/>
     <use xlink:href="#m167fe0e8dd" x="641.803533" y="60.394476" style="fill: #b78cff; stroke: #b78cff"/>
     <use xlink:href="#m167fe0e8dd" x="717.789634" y="59.052562" style="fill: #b78cff; stroke: #b78cff"/>
     <use xlink:href="#m167fe0e8dd" x="793.775734" y="63.718758" style="fill: #b78cff; stroke: #b78cff"/>
    </g>
   </g>
  </g>
 </g>
 <defs>
  <clipPath id="pdf4ad90e5f">
   <rect x="47.288281" y="41.916562" width="809.1" height="376.992"/>
  </clipPath>
 </defs>
</svg>
